<svg width="236" height="273" viewBox="0 0 236 273" fill="none" xmlns="http://www.w3.org/2000/svg">
<path d="M183.248 126.53C182.072 125.967 180.878 125.424 179.668 124.905C177.56 86.0778 156.345 63.8493 120.721 63.6218C120.559 63.6208 120.399 63.6208 120.238 63.6208C98.9299 63.6208 81.2086 72.716 70.3013 89.2663L89.8933 102.706C98.0415 90.3435 110.829 87.7081 120.247 87.7081C120.356 87.7081 120.465 87.7081 120.573 87.7091C132.302 87.7839 141.153 91.1942 146.882 97.8449C151.051 102.687 153.839 109.378 155.22 117.822C144.82 116.054 133.573 115.511 121.55 116.2C87.6804 118.151 65.9064 137.905 67.3688 165.353C68.1109 179.276 75.0471 191.254 86.8988 199.078C96.9193 205.693 109.825 208.927 123.238 208.195C140.951 207.224 154.847 200.466 164.542 188.108C171.904 178.724 176.561 166.563 178.617 151.239C187.059 156.334 193.315 163.038 196.77 171.097C202.645 184.797 202.988 207.309 184.619 225.663C168.524 241.741 149.178 248.697 119.941 248.912C87.5091 248.672 62.9812 238.271 47.0339 217.998C32.1005 199.014 24.3828 171.595 24.0949 136.5C24.3828 101.405 32.1005 73.9853 47.0339 55.002C62.9812 34.7292 87.5087 24.3283 119.941 24.0873C152.608 24.3301 177.563 34.7811 194.121 55.1517C202.24 65.1412 208.361 77.7038 212.396 92.3512L235.355 86.2256C230.464 68.1963 222.768 52.6601 212.294 39.7755C191.067 13.6595 160.022 0.277476 120.021 0H119.861C79.941 0.276512 49.2435 13.7094 28.6209 39.9253C10.2696 63.2541 0.803444 95.7145 0.48537 136.404L0.484375 136.5L0.48537 136.596C0.803444 177.285 10.2696 209.746 28.6209 233.075C49.2435 259.29 79.941 272.724 119.861 273H120.021C155.511 272.754 180.528 263.462 201.137 242.872C228.1 215.934 227.288 182.169 218.401 161.441C212.025 146.577 199.87 134.504 183.248 126.53ZM121.97 184.143C107.126 184.979 91.7039 178.316 90.9435 164.045C90.3799 153.463 98.474 141.656 122.881 140.249C125.676 140.088 128.419 140.009 131.113 140.009C139.979 140.009 148.273 140.87 155.813 142.519C153 177.642 136.504 183.345 121.97 184.143Z" fill="white"/>
</svg>
