<svg width="17" height="16" viewBox="0 0 17 16" fill="none" xmlns="http://www.w3.org/2000/svg">
<path id="Vector" d="M8.32996 14.7985C6.94549 14.7985 5.59211 14.3879 4.44097 13.6187C3.28982 12.8496 2.39261 11.7563 1.8628 10.4772C1.33299 9.19816 1.19436 7.7907 1.46446 6.43283C1.73456 5.07497 2.40124 3.82768 3.38021 2.84872C4.35918 1.86975 5.60646 1.20306 6.96433 0.932968C8.32219 0.662872 9.72966 0.801495 11.0087 1.33131C12.2878 1.86112 13.3811 2.75833 14.1502 3.90947C14.9194 5.06062 15.33 6.41399 15.33 7.79846C15.33 8.9558 15.05 10.047 14.5522 11.0084L15.33 14.7985L11.5398 14.0207C10.5785 14.5185 9.48651 14.7985 8.32996 14.7985Z" stroke="black" stroke-width="1.5" stroke-linecap="round" stroke-linejoin="round"/>
</svg>
