<svg width="18" height="16" viewBox="0 0 18 16" fill="none" xmlns="http://www.w3.org/2000/svg">
<path fill-rule="evenodd" clip-rule="evenodd" d="M14.292 0.694091C16.1073 1.75208 17.3845 3.90012 17.3282 6.40602C17.258 9.53406 14.824 12.293 10.6744 14.7573C10.0592 15.123 9.41105 15.5969 8.665 15.5969C7.93281 15.5969 7.25695 15.1143 6.65473 14.7564C2.50683 12.293 0.0719777 9.5332 0.00179165 6.40602C-0.0545305 3.90012 1.22268 1.75295 3.03799 0.694091C4.73632 -0.294579 6.86962 -0.300644 8.665 1.1594C10.4604 -0.300644 12.5937 -0.295445 14.292 0.694091ZM13.4195 2.19226C12.2116 1.48867 10.7021 1.51379 9.39545 2.83606C9.29977 2.93242 9.18597 3.0089 9.06061 3.06109C8.93524 3.11327 8.80079 3.14014 8.665 3.14014C8.52921 3.14014 8.39476 3.11327 8.26939 3.06109C8.14403 3.0089 8.03023 2.93242 7.93455 2.83606C6.62787 1.51379 5.11844 1.48867 3.91055 2.19226C2.65933 2.92185 1.69232 4.46941 1.73478 6.36876C1.7833 8.54453 3.50243 10.8693 7.54029 13.2678C7.89382 13.4783 8.26295 13.7478 8.665 13.8596C9.06705 13.7478 9.43618 13.4783 9.78971 13.2678C13.8276 10.8693 15.5467 8.54539 15.5952 6.3679C15.6385 4.47027 14.6707 2.92185 13.4195 2.19226Z" fill="black"/>
</svg>
