<svg width="14" height="16" viewBox="0 0 14 16" fill="none" xmlns="http://www.w3.org/2000/svg">
<g id="Retweet stroke icon">
<path d="M0.478055 12.3794C0.280589 12.5433 0.28059 12.8089 0.478056 12.9728L3.09566 15.1448C3.34249 15.3497 3.74269 15.3497 3.98952 15.1448C4.23635 14.94 4.23635 14.6079 3.98952 14.4031L2.54029 13.2006H10.116C11.8613 13.2006 13.2762 12.0265 13.2762 10.5782V7.22154C13.2762 6.93188 12.9932 6.69706 12.6442 6.69706C12.2951 6.69706 12.0121 6.93188 12.0121 7.22154V10.5782C12.0121 11.4472 11.1632 12.1516 10.116 12.1516H2.54029L3.98952 10.949C4.23635 10.7442 4.23635 10.4121 3.98952 10.2073C3.74269 10.0025 3.34249 10.0025 3.09566 10.2073L0.478055 12.3794Z" fill="black"/>
<path d="M13.3069 3.21753C13.5043 3.05367 13.5043 2.78801 13.3069 2.62415L10.6893 0.452077C10.4424 0.247256 10.0422 0.247256 9.79539 0.452077C9.54856 0.656897 9.54856 0.988977 9.79539 1.1938L11.2446 2.39636H3.66896C1.92359 2.39636 0.50869 3.57044 0.50869 5.01874V8.37538C0.50869 8.66504 0.79167 8.89986 1.14074 8.89986C1.48982 8.89986 1.7728 8.66504 1.7728 8.37538V5.01874C1.7728 4.14976 2.62174 3.44531 3.66896 3.44531H11.2446L9.79539 4.64788C9.54856 4.8527 9.54856 5.18478 9.79539 5.3896C10.0422 5.59442 10.4424 5.59442 10.6893 5.3896L13.3069 3.21753Z" fill="black"/>
</g>
</svg>
