<svg width="14" height="14" viewBox="0 0 14 14" fill="none" xmlns="http://www.w3.org/2000/svg">
<path id="Vector" d="M13.1438 0.626924C13.0035 0.487585 12.8275 0.389631 12.6351 0.343826C12.4427 0.298021 12.2414 0.306139 12.0533 0.367286L1.20051 3.98737C0.999228 4.05115 0.821365 4.17314 0.689382 4.33795C0.557398 4.50275 0.477214 4.70298 0.458958 4.91333C0.440701 5.12367 0.48519 5.33472 0.586806 5.5198C0.688422 5.70488 0.842607 5.85569 1.02989 5.95319L5.53274 8.17866L7.7582 12.6963C7.84765 12.8732 7.98453 13.0216 8.15352 13.1251C8.32252 13.2286 8.51698 13.2831 8.71515 13.2824H8.78933C9.00156 13.2667 9.20418 13.1876 9.37087 13.0554C9.53756 12.9231 9.66061 12.7437 9.72402 12.5406L13.396 1.7174C13.4616 1.53041 13.4727 1.32864 13.4281 1.13559C13.3834 0.942532 13.2848 0.766132 13.1438 0.626924ZM1.66043 5.01108L11.1335 1.85093L5.87397 7.11043L1.66043 5.01108ZM8.76707 12.1103L6.6603 7.89676L11.9198 2.63726L8.76707 12.1103Z" fill="black"/>
</svg>
