<svg width="14" height="15" viewBox="0 0 14 15" fill="none" xmlns="http://www.w3.org/2000/svg">
<path d="M13.3146 7.68709C13.3146 8.15258 13.2028 8.58427 12.9791 8.97954C12.7555 9.37482 12.4564 9.68428 12.0794 9.90013C12.0898 9.97034 12.095 10.0796 12.095 10.2278C12.095 10.9325 11.8583 11.5306 11.3902 12.0247C10.9195 12.5214 10.3526 12.7685 9.68949 12.7685C9.39303 12.7685 9.10958 12.7139 8.84173 12.6047C8.63369 13.0311 8.33463 13.3744 7.94195 13.6371C7.55187 13.9023 7.12279 14.0323 6.6573 14.0323C6.18141 14.0323 5.74972 13.9049 5.36485 13.6449C4.97737 13.3874 4.68091 13.0415 4.47287 12.6047C4.20502 12.7139 3.92417 12.7685 3.62511 12.7685C2.96198 12.7685 2.39247 12.5214 1.91657 12.0247C1.44068 11.5306 1.20404 10.9299 1.20404 10.2278C1.20404 10.1498 1.21444 10.0406 1.23264 9.90013C0.855567 9.68168 0.556509 9.37482 0.332865 8.97954C0.111822 8.58427 0 8.15258 0 7.68709C0 7.19299 0.124824 6.7379 0.371873 6.32702C0.618921 5.91614 0.951786 5.61188 1.36787 5.41424C1.25865 5.11778 1.20404 4.81872 1.20404 4.52226C1.20404 3.82012 1.44068 3.21941 1.91657 2.72531C2.39247 2.23121 2.96198 1.98156 3.62511 1.98156C3.92157 1.98156 4.20502 2.03617 4.47287 2.14539C4.68091 1.71891 4.97997 1.37564 5.37265 1.11299C5.76273 0.850339 6.19181 0.717712 6.6573 0.717712C7.12279 0.717712 7.55187 0.850339 7.94195 1.11039C8.33203 1.37304 8.63369 1.71631 8.84173 2.14279C9.10958 2.03357 9.39043 1.97896 9.68949 1.97896C10.3526 1.97896 10.9195 2.22601 11.3902 2.72271C11.8609 3.21941 12.095 3.81752 12.095 4.51966C12.095 4.84733 12.0456 5.14379 11.9467 5.41164C12.3628 5.60928 12.6957 5.91354 12.9427 6.32442C13.1898 6.7379 13.3146 7.19299 13.3146 7.68709ZM6.37384 9.69208L9.12258 5.57547C9.19279 5.46625 9.2136 5.34663 9.19019 5.2192C9.16419 5.09178 9.09918 4.99036 8.98996 4.92274C8.88073 4.85253 8.76111 4.82912 8.63369 4.84733C8.50366 4.86813 8.39964 4.93054 8.32162 5.03977L5.90055 8.68049L4.78493 7.56746C4.68611 7.46865 4.57169 7.42184 4.44427 7.42704C4.31424 7.43224 4.20242 7.47905 4.1036 7.56746C4.01518 7.65588 3.97098 7.7677 3.97098 7.90293C3.97098 8.03556 4.01518 8.14738 4.1036 8.2384L5.6353 9.7701L5.71071 9.82991C5.79913 9.88972 5.89015 9.91833 5.97857 9.91833C6.1528 9.91573 6.28543 9.84291 6.37384 9.69208Z" fill="#1DA1F2"/>
</svg>
